<svg width="16" height="16" viewBox="0 0 16 16" fill="none" xmlns="http://www.w3.org/2000/svg">
<path fill-rule="evenodd" clip-rule="evenodd" d="M7.9585 2.29169C6.2548 2.29169 4.88634 3.66016 4.88634 5.36385C4.88634 7.06805 6.25469 8.43663 7.9585 8.43663C9.66231 8.43663 11.0307 7.06805 11.0307 5.36385C11.0307 3.66016 9.6622 2.29169 7.9585 2.29169ZM7.9585 3.29169C9.10991 3.29169 10.0307 4.21244 10.0307 5.36385C10.0307 6.5158 9.10999 7.43663 7.9585 7.43663C6.80701 7.43663 5.88634 6.5158 5.88634 5.36385C5.88634 4.21244 6.80709 3.29169 7.9585 3.29169ZM4.19332 2.9196C4.46947 2.9196 4.69332 3.14346 4.69332 3.4196C4.69332 3.69575 4.46947 3.9196 4.19332 3.9196C3.40108 3.9196 2.75855 4.56186 2.75855 5.35377C2.75855 6.14568 3.40108 6.78794 4.19332 6.78794C4.46947 6.78794 4.69332 7.01179 4.69332 7.28794C4.69332 7.56408 4.46947 7.78794 4.19332 7.78794C2.84889 7.78794 1.75855 6.69807 1.75855 5.35377C1.75855 4.00947 2.84889 2.9196 4.19332 2.9196ZM14.1647 5.35377C14.1647 4.00947 13.0743 2.9196 11.7299 2.9196C11.4538 2.9196 11.2299 3.14346 11.2299 3.4196C11.2299 3.69575 11.4538 3.9196 11.7299 3.9196C12.5222 3.9196 13.1647 4.56186 13.1647 5.35377C13.1647 6.14568 12.5222 6.78794 11.7299 6.78794C11.4538 6.78794 11.2299 7.01179 11.2299 7.28794C11.2299 7.56408 11.4538 7.78794 11.7299 7.78794C13.0743 7.78794 14.1647 6.69807 14.1647 5.35377ZM13.6639 9.03667C13.3438 8.96442 13.0016 8.91503 12.6538 8.89104C12.3783 8.87204 12.1396 9.07996 12.1206 9.35545C12.1016 9.63094 12.3095 9.86967 12.585 9.88867C12.8827 9.9092 13.1744 9.95132 13.4581 10.0152C13.8992 10.1017 14.1868 10.2452 14.2581 10.3948C14.3118 10.5077 14.3118 10.6404 14.2576 10.7547C14.1872 10.9028 13.902 11.0455 13.4671 11.1349C13.1966 11.1906 13.0225 11.4549 13.0781 11.7254C13.1337 11.9959 13.3981 12.1701 13.6685 12.1144C14.3873 11.9666 14.9139 11.7031 15.1609 11.1837C15.3441 10.7976 15.3441 10.3498 15.1609 9.9647C14.9122 9.4434 14.3766 9.17619 13.6639 9.03667ZM3.80267 9.35545C3.78367 9.07996 3.54494 8.87204 3.26945 8.89104C2.92159 8.91503 2.57948 8.96442 2.24563 9.03955L2.108 9.06867C1.47625 9.21302 0.994283 9.47828 0.762941 9.96463C0.579038 10.3494 0.579038 10.798 0.763135 11.1841C1.00908 11.7029 1.5356 11.9666 2.2547 12.1144C2.52518 12.1701 2.78954 11.9959 2.84516 11.7254C2.90078 11.4549 2.7266 11.1906 2.45612 11.1349C2.02139 11.0455 1.73647 10.9029 1.66626 10.7548C1.61155 10.64 1.61155 10.5081 1.66559 10.395C1.73691 10.2451 2.02422 10.1017 2.45147 10.018L2.67362 9.97256C2.89508 9.93161 3.11499 9.90407 3.33825 9.88867C3.61374 9.86967 3.82167 9.63094 3.80267 9.35545ZM3.44472 11.4564C3.44472 9.86576 5.09002 9.30639 7.9585 9.30639L8.16173 9.30733C10.9103 9.33315 12.4723 9.89381 12.4723 11.4448C12.4723 12.9592 10.9792 13.5391 8.35982 13.5909L7.9585 13.5948C5.08344 13.5948 3.44472 13.0452 3.44472 11.4564ZM11.4723 11.4448C11.4723 10.7044 10.2853 10.3064 7.9585 10.3064C5.63403 10.3064 4.44472 10.7107 4.44472 11.4564C4.44472 12.1968 5.63138 12.5948 7.9585 12.5948C10.2823 12.5948 11.4723 12.1901 11.4723 11.4448Z" fill="#7F18D0"/>
</svg>
